<?xml version="1.0" encoding="UTF-8"?><svg xmlns="http://www.w3.org/2000/svg" xmlns:xlink="http://www.w3.org/1999/xlink" width="219" height="525" viewBox="-0.5 -0.5 219 525" ><style><![CDATA[.B{pointer-events:all}.C{fill:#b0b0b0}.D{font-family:Helvetica}.E{font-size:12px}.F{text-anchor:middle}.G{fill:none}.H{pointer-events:stroke}.I{stroke:#b0b0b0}.J{stroke-miterlimit:10}]]></style><g class="I J"><path d="M108 41v34.63" class="G H"/><use xlink:href="#B" class="B C"/></g><ellipse cx="108" cy="21" rx="50" ry="20" fill="#e3c800" class="B"/><text x="107.5" y="24.5" fill="#000" class="D E F">Start</text><g class="I J"><path d="M158 117h51.06v383.53l-44.69-.03" class="G H"/><path d="M159.12 500.5l7-3.5-1.75 3.5 1.75 3.5z" class="B C"/><path d="M108 152v43.63" class="G H"/><use xlink:href="#B" y="120" class="B C"/></g><path d="M108 82l50 35-50 35-50-35z" fill="#d80073" class="B"/><text x="107.5" y="120.5" fill="#fff" class="D E F">Condition</text><g class="I J"><path d="M108 247v20-6 13.63" class="G H"/><use xlink:href="#B" y="199" class="B C"/></g><rect x="58" y="202" width="100" height="45" rx="7" fill="#1ba1e2" class="B"/><text x="107.5" y="227.5" fill="#fff" class="D E F">Statements</text><path d="M88.61 478h38.78c16.9 0 30.61 10.07 30.61 22.5S144.29 523 127.39 523H88.61C71.71 523 58 512.93 58 500.5S71.71 478 88.61 478z" fill="#e3c800" class="B"/><text x="107.5" y="503.5" fill="#000" class="D E F">End</text><text x="180.5" y="109.5" class="C D E F">false</text><text x="129.5" y="176.5" class="C D E F">true</text><g class="I J"><path d="M58 316l151.06.06v184.47l-44.69-.03" class="G H"/><path d="M159.12 500.5l7-3.5-1.75 3.5 1.75 3.5z" class="B C"/><path d="M108 351v34.63" class="G H"/><use xlink:href="#B" y="310" class="B C"/></g><path d="M108 281l50 35-50 35-50-35z" fill="#d80073" class="B"/><text x="107.5" y="319.5" fill="#fff" class="D E F">break</text><text x="180.5" y="308.5" class="C D E F">Yes</text><g class="I J"><path d="M58 414.53H7.06V117h44.57" class="G H"/><path d="M56.88 117l-7 3.5 1.75-3.5-1.75-3.5z" class="B C"/></g><rect x="58" y="392" width="100" height="45" rx="7" fill="#1ba1e2" class="B"/><text x="107.5" y="417.5" fill="#fff" class="D E F">Statements</text><text x="127.5" y="369.5" class="C D E F">No</text><defs ><path id="B" d="M108 80.88l-3.5-7 3.5 1.75 3.5-1.75z"/></defs></svg>